<?xml version="1.0" encoding="UTF-8"?>
<svg version="1.1" xmlns="http://www.w3.org/2000/svg" width="474" height="191">
<path d="M0 0 C156.42 0 312.84 0 474 0 C474 63.03 474 126.06 474 191 C317.58 191 161.16 191 0 191 C0 127.97 0 64.94 0 0 Z " fill="#FEFEFE" transform="translate(0,0)"/>
<path d="M0 0 C7.9323062 5.00754526 12.15447817 10.49468451 15.09765625 19.32421875 C16.03472349 29.55514958 14.27813548 36.64644365 7.84765625 44.63671875 C4.82646162 47.9456462 1.89667014 49.72689134 -2.30078125 51.2421875 C-4.19064343 52.26693045 -4.19064343 52.26693045 -4.62890625 54.9375 C-4.71914063 55.72511719 -4.809375 56.51273438 -4.90234375 57.32421875 C-3.65517578 57.41509766 -3.65517578 57.41509766 -2.3828125 57.5078125 C-1.29613281 57.59160156 -0.20945313 57.67539063 0.91015625 57.76171875 C1.98910156 57.84292969 3.06804688 57.92414063 4.1796875 58.0078125 C7.09765625 58.32421875 7.09765625 58.32421875 10.09765625 59.32421875 C10.59265625 62.29421875 10.59265625 62.29421875 11.09765625 65.32421875 C-4.74234375 65.32421875 -20.58234375 65.32421875 -36.90234375 65.32421875 C-36.57234375 63.67421875 -36.24234375 62.02421875 -35.90234375 60.32421875 C-31.57767428 57.53410941 -25.91821827 57.69432211 -20.90234375 57.32421875 C-21.08271199 54.89203844 -21.08271199 54.89203844 -21.90234375 52.32421875 C-23.72252887 50.92942573 -23.72252887 50.92942573 -26.02734375 50.01171875 C-32.35719513 46.78631677 -36.92158614 42.10297181 -39.83984375 35.57421875 C-42.27151939 27.69435846 -41.80071411 20.40767199 -38.33984375 12.94921875 C-34.25473972 5.63802789 -29.18989813 1.16908748 -21.421875 -1.98046875 C-14.09765229 -4.00172711 -6.75365492 -3.49326979 0 0 Z " fill="#060606" transform="translate(56.90234375,9.67578125)"/>
<path d="M0 0 C4.11217353 1.5816052 6.87251055 3.08094049 9 7 C9.6875 10.25 9.6875 10.25 10 13 C6.7 13 3.4 13 0 13 C0 14.32 0 15.64 0 17 C3.3 17 6.6 17 10 17 C10 18.98 10 20.96 10 23 C6.7 23 3.4 23 0 23 C0 24.32 0 25.64 0 27 C3.3 27 6.6 27 10 27 C10 28.98 10 30.96 10 33 C6.7 33 3.4 33 0 33 C0 34.32 0 35.64 0 37 C3.3 37 6.6 37 10 37 C10 38.98 10 40.96 10 43 C6.7 43 3.4 43 0 43 C0 44.32 0 45.64 0 47 C3.3 47 6.6 47 10 47 C9.54713369 51.86831281 8.41678531 54.48559226 5 58 C1.95529396 60.28352953 -1.20890858 60.42464146 -4.97265625 60.3125 C-8.42656706 59.78010527 -10.41844495 58.28137423 -13 56 C-16.24024709 50.91574899 -16.44135809 46.70707473 -16.3984375 40.875 C-16.40130768 40.00987793 -16.40417786 39.14475586 -16.40713501 38.25341797 C-16.40916898 36.43130841 -16.40368593 34.60917669 -16.39111328 32.78710938 C-16.37504981 30.00861479 -16.39098436 27.23157469 -16.41015625 24.453125 C-16.4081737 22.67708014 -16.40432978 20.90103619 -16.3984375 19.125 C-16.40451019 18.29983887 -16.41058289 17.47467773 -16.4168396 16.62451172 C-16.35702046 11.68404939 -15.73306963 8.27827088 -13 4 C-8.67800671 0.26736943 -5.66822992 -0.70852874 0 0 Z " fill="#020202" transform="translate(47,93)"/>
<path d="M0 0 C1.98 0 3.96 0 6 0 C6.03738281 0.94101563 6.07476563 1.88203125 6.11328125 2.8515625 C6.17902344 4.09679687 6.24476562 5.34203125 6.3125 6.625 C6.37050781 7.85476562 6.42851562 9.08453125 6.48828125 10.3515625 C7.21077782 15.50279761 8.86413212 19.60198338 13.0625 22.8125 C17.82244902 26.35714288 21.17807582 26.53105389 27 26 C32.27322153 24.17465409 34.79691086 21.39280797 38 17 C39.15570704 13.53287889 39.32835293 10.4585044 39.5625 6.8125 C39.64628906 5.54019531 39.73007812 4.26789063 39.81640625 2.95703125 C39.90728516 1.49330078 39.90728516 1.49330078 40 0 C41.98 0 43.96 0 46 0 C46.64668725 18.61022191 46.64668725 18.61022191 39.6640625 26.578125 C36.13022647 29.59764687 30.75036116 33 26 33 C26 36.96 26 40.92 26 45 C32.93 45 39.86 45 47 45 C47 46.98 47 48.96 47 51 C31.16 51 15.32 51 -1 51 C-1 49.02 -1 47.04 -1 45 C5.93 45 12.86 45 20 45 C20 41.04 20 37.08 20 33 C17.958125 32.4121875 17.958125 32.4121875 15.875 31.8125 C9.3451999 29.58131438 5.61393758 26.50161833 2.125 20.625 C-1.01248157 14.00922416 -0.42831291 7.13854852 0 0 Z " fill="#050505" transform="translate(21,130)"/>
<path d="M0 0 C3.68969797 3.72947908 6.13883209 6.87691811 6.3125 12.1875 C6.24724792 17.26084903 4.97267758 19.9025255 2 24 C-2.58260325 28.24729081 -6.44664483 29.48021776 -12.58203125 29.41015625 C-16.99201079 28.66209833 -19.93524651 26.13669606 -23 23 C-26.06033343 18.6007707 -26.91855119 14.2765663 -26 9 C-24.18877068 4.19926853 -21.29611635 0.79247563 -17 -2 C-11.11902671 -4.35238932 -5.19185571 -3.38599286 0 0 Z " fill="#090909" transform="translate(54,22)"/>
<path d="M0 0 C6.6 0 13.2 0 20 0 C20 2.31 20 4.62 20 7 C21.2065625 6.7215625 21.2065625 6.7215625 22.4375 6.4375 C23.7059375 6.2209375 23.7059375 6.2209375 25 6 C26 7 26 7 26.09765625 9.28515625 C26.08605469 10.20167969 26.07445312 11.11820313 26.0625 12.0625 C26.05347656 12.98160156 26.04445312 13.90070312 26.03515625 14.84765625 C26.02355469 15.55792969 26.01195312 16.26820312 26 17 C27.65 17 29.3 17 31 17 C31 13.37 31 9.74 31 6 C32.32 6 33.64 6 35 6 C35 7.32 35 8.64 35 10 C35.66 10 36.32 10 37 10 C37.33 8.68 37.66 7.36 38 6 C39.98 6 41.96 6 44 6 C43.67 6.99 43.34 7.98 43 9 C42.01 8.67 41.02 8.34 40 8 C40 8.66 40 9.32 40 10 C42.46326712 11.6446674 42.46326712 11.6446674 45 13 C44.67 14.65 44.34 16.3 44 18 C34.31629705 18.69613269 24.71614177 19.14973506 15 19 C15 18.34 15 17.68 15 17 C15.66 17 16.32 17 17 17 C17 12.05 17 7.1 17 2 C16.34 2 15.68 2 15 2 C15 2.66 15 3.32 15 4 C14.34 4 13.68 4 13 4 C13 3.34 13 2.68 13 2 C11.35 2 9.7 2 8 2 C8 6.95 8 11.9 8 17 C8.99 17.33 9.98 17.66 11 18 C8.69 18 6.38 18 4 18 C4.66 17.67 5.32 17.34 6 17 C6 12.05 6 7.1 6 2 C4.02 2.33 2.04 2.66 0 3 C0 2.01 0 1.02 0 0 Z " fill="#E9E9E9" transform="translate(121,32)"/>
<path d="M0 0 C3.68969797 3.72947908 6.13883209 6.87691811 6.3125 12.1875 C6.24724792 17.26084903 4.97267758 19.9025255 2 24 C-2.58260325 28.24729081 -6.44664483 29.48021776 -12.58203125 29.41015625 C-16.99201079 28.66209833 -19.93524651 26.13669606 -23 23 C-26.06033343 18.6007707 -26.91855119 14.2765663 -26 9 C-24.18877068 4.19926853 -21.29611635 0.79247563 -17 -2 C-11.11902671 -4.35238932 -5.19185571 -3.38599286 0 0 Z M-21 7 C-22.2179198 11.11626061 -22.47377742 14.81555644 -20.875 18.8125 C-17.65717081 22.56663405 -15.61367796 24.7946228 -10.5625 25.4375 C-5.62544753 24.83119531 -2.39955413 23.63281315 0.875 19.8125 C2.36485435 16.08786412 2.8844469 12.89893674 2 9 C0.08980197 5.23025314 -2.17032855 2.62594023 -6.2265625 1.23828125 C-12.66455039 0.23705571 -16.77085837 2.05051007 -21 7 Z " fill="#EDEDED" transform="translate(54,22)"/>
<path d="M0 0 C0.66 0 1.32 0 2 0 C2.33 2.31 2.66 4.62 3 7 C4.65 7.33 6.3 7.66 8 8 C8.33 10.97 8.66 13.94 9 17 C10.32 17.33 11.64 17.66 13 18 C12.67 14.37 12.34 10.74 12 7 C13.65 7 15.3 7 17 7 C17 8.32 17 9.64 17 11 C17.66 11 18.32 11 19 11 C19.33 9.68 19.66 8.36 20 7 C21.98 7 23.96 7 26 7 C25.67 7.99 25.34 8.98 25 10 C24.01 9.67 23.02 9.34 22 9 C22 9.66 22 10.32 22 11 C23.2375 11.680625 23.2375 11.680625 24.5 12.375 C25.325 12.91125 26.15 13.4475 27 14 C27 15.32 27 16.64 27 18 C20.16341143 19.78101897 13.98388717 20.25249204 6.9375 20.125 C5.97650391 20.11597656 5.01550781 20.10695312 4.02539062 20.09765625 C1.68332195 20.07435208 -0.65819792 20.04164058 -3 20 C-3 19.34 -3 18.68 -3 18 C-2.34 18 -1.68 18 -1 18 C-1.01160156 16.78441406 -1.02320313 15.56882813 -1.03515625 14.31640625 C-1.04453278 12.73177236 -1.05363313 11.14713682 -1.0625 9.5625 C-1.07506836 8.35883789 -1.07506836 8.35883789 -1.08789062 7.13085938 C-1.0965143 5.08704779 -1.0522815 3.04316098 -1 1 C-0.67 0.67 -0.34 0.34 0 0 Z " fill="#EAEAEA" transform="translate(139,131)"/>
<path d="M0 0 C3.41589896 -0.29071481 5.73842267 -0.08719244 9 1 C10.11375 0.835 11.2275 0.67 12.375 0.5 C15.71308712 0.03957419 17.80823369 0.0612452 21 1 C22 2 22 2 22.1875 5.375 C22 9 22 9 20 12 C17.375 12.1875 17.375 12.1875 15 12 C15.33 13.98 15.66 15.96 16 18 C14.02 18 12.04 18 10 18 C10 14.7 10 11.4 10 8 C9.34 8 8.68 8 8 8 C7.67 8.99 7.34 9.98 7 11 C4.69 11.33 2.38 11.66 0 12 C-2.31332486 8.53001271 -2.33957563 7.07490752 -2 3 C-1.34 2.01 -0.68 1.02 0 0 Z " fill="#DBDBDB" transform="translate(375,138)"/>
<path d="M0 0 C1.19625 0.020625 2.3925 0.04125 3.625 0.0625 C4.615 0.0625 5.605 0.0625 6.625 0.0625 C11.425 0.8625 11.425 0.8625 12.625 2.0625 C12.69679964 3.58178038 12.70892007 5.10417482 12.6875 6.625 C12.67847656 7.45128906 12.66945313 8.27757812 12.66015625 9.12890625 C12.64855469 9.76699219 12.63695312 10.40507812 12.625 11.0625 C13.945 11.0625 15.265 11.0625 16.625 11.0625 C16.625 7.4325 16.625 3.8025 16.625 0.0625 C17.615 0.0625 18.605 0.0625 19.625 0.0625 C19.955 4.3525 20.285 8.6425 20.625 13.0625 C11.715 13.0625 2.805 13.0625 -6.375 13.0625 C-6.375 12.4025 -6.375 11.7425 -6.375 11.0625 C-5.715 11.0625 -5.055 11.0625 -4.375 11.0625 C-4.38660156 10.35222656 -4.39820313 9.64195312 -4.41015625 8.91015625 C-4.41917969 7.99105469 -4.42820312 7.07195312 -4.4375 6.125 C-4.44910156 5.20847656 -4.46070313 4.29195312 -4.47265625 3.34765625 C-4.31510946 -0.33893867 -3.80726965 0.07050499 0 0 Z " fill="#B7B7B7" transform="translate(329.375,137.9375)"/>
<path d="M0 0 C2.64590014 -0.02684679 5.29153096 -0.04676357 7.9375 -0.0625 C8.69224609 -0.07087891 9.44699219 -0.07925781 10.22460938 -0.08789062 C12.14994313 -0.09652441 14.07535581 -0.05224333 16 0 C17 1 17 1 17.09765625 3.28515625 C17.08605469 4.20167969 17.07445312 5.11820313 17.0625 6.0625 C17.05347656 6.98160156 17.04445313 7.90070312 17.03515625 8.84765625 C17.02355469 9.55792969 17.01195312 10.26820312 17 11 C17.66 11 18.32 11 19 11 C19 11.66 19 12.32 19 13 C12.4 13 5.8 13 -1 13 C-0.67 8.71 -0.34 4.42 0 0 Z " fill="#D9D9D9" transform="translate(348,38)"/>
<path d="M0 0 C0.99 0.66 1.98 1.32 3 2 C3.99 1.34 4.98 0.68 6 0 C8.625 -0.1875 8.625 -0.1875 11 0 C12.73956658 1.73956658 12.37190386 4.1936622 12.5625 6.5625 C12.68818359 8.08037109 12.68818359 8.08037109 12.81640625 9.62890625 C12.87699219 10.41136719 12.93757813 11.19382812 13 12 C5.46073298 12.12565445 5.46073298 12.12565445 2.9375 11.4375 C-0.1252775 10.74590508 -2.94347171 11.47098549 -6 12 C-8.31282587 8.53076119 -8.42478586 7.07794425 -8 3 C-5.89071992 -0.33044223 -3.77437178 -0.47179647 0 0 Z " fill="#E5E5E5" transform="translate(332,38)"/>
<path d="M0 0 C3 -0.3125 3 -0.3125 6 0 C6.66 0.66 7.32 1.32 8 2 C8.66 1.34 9.32 0.68 10 0 C12.68839385 -0.26991906 15.29141936 -0.08737357 18 0 C18 0.99 18 1.98 18 3 C16.68 3 15.36 3 14 3 C14.33 5.97 14.66 8.94 15 12 C13.02 12 11.04 12 9 12 C9 11.01 9 10.02 9 9 C8.01 10.485 8.01 10.485 7 12 C3.5 12.375 3.5 12.375 0 12 C-2.31332486 8.53001271 -2.33957563 7.07490752 -2 3 C-1.34 2.01 -0.68 1.02 0 0 Z " fill="#E5E5E5" transform="translate(354,138)"/>
<path d="M0 0 C6.6 0 13.2 0 20 0 C20 2.31 20 4.62 20 7 C21.2065625 6.7215625 21.2065625 6.7215625 22.4375 6.4375 C23.7059375 6.2209375 23.7059375 6.2209375 25 6 C26.73956658 7.73956658 26.37190386 10.1936622 26.5625 12.5625 C26.68818359 14.08037109 26.68818359 14.08037109 26.81640625 15.62890625 C26.87699219 16.41136719 26.93757813 17.19382812 27 18 C25.68 17.67 24.36 17.34 23 17 C23.33 14.03 23.66 11.06 24 8 C23.01 8.33 22.02 8.66 21 9 C21 11.97 21 14.94 21 18 C19.35 18 17.7 18 16 18 C16.33 12.72 16.66 7.44 17 2 C16.34 2 15.68 2 15 2 C15 2.66 15 3.32 15 4 C14.34 4 13.68 4 13 4 C13 3.34 13 2.68 13 2 C11.35 2 9.7 2 8 2 C8 6.95 8 11.9 8 17 C8.99 17.33 9.98 17.66 11 18 C8.69 18 6.38 18 4 18 C4.66 17.67 5.32 17.34 6 17 C6 12.05 6 7.1 6 2 C4.02 2.33 2.04 2.66 0 3 C0 2.01 0 1.02 0 0 Z " fill="#626262" transform="translate(121,32)"/>
<path d="M0 0 C0 0.99 0 1.98 0 3 C-1.32 3 -2.64 3 -4 3 C-3.67 5.97 -3.34 8.94 -3 12 C-5.08268593 12.08126087 -7.16628658 12.13930839 -9.25 12.1875 C-10.41015625 12.22230469 -11.5703125 12.25710937 -12.765625 12.29296875 C-16.24698247 11.9776284 -17.61831539 11.5217837 -20 9 C-20.25 5.8125 -20.25 5.8125 -20 3 C-17.69 3.33 -15.38 3.66 -13 4 C-13 3.01 -13 2.02 -13 1 C-8.60563789 0.14256349 -4.47427924 -0.08948558 0 0 Z " fill="#CECECE" transform="translate(388,38)"/>
<path d="M0 0 C1.20462891 -0.02126953 1.20462891 -0.02126953 2.43359375 -0.04296875 C4.5625 0.1875 4.5625 0.1875 6.5625 2.1875 C6.87787716 6.52393601 7.01147847 8.51403229 4.5625 12.1875 C1.9375 12.375 1.9375 12.375 -0.4375 12.1875 C-0.1075 14.1675 0.2225 16.1475 0.5625 18.1875 C-1.4175 18.1875 -3.3975 18.1875 -5.4375 18.1875 C-5.46434312 15.37493719 -5.48426188 12.56262759 -5.5 9.75 C-5.50837891 8.94755859 -5.51675781 8.14511719 -5.52539062 7.31835938 C-5.5340143 5.27454779 -5.4897815 3.23066098 -5.4375 1.1875 C-3.84855928 -0.40144072 -2.18948576 0.01751589 0 0 Z " fill="#CDCDCD" transform="translate(179.4375,137.8125)"/>
<path d="M0 0 C0.66 0 1.32 0 2 0 C2.33 2.31 2.66 4.62 3 7 C3.804375 7.144375 4.60875 7.28875 5.4375 7.4375 C8 8 8 8 9 9 C9.46212633 12.6570738 9.70429173 16.32476863 10 20 C5.71 20 1.42 20 -3 20 C-3 19.34 -3 18.68 -3 18 C-2.34 18 -1.68 18 -1 18 C-1.01160156 16.86820313 -1.02320313 15.73640625 -1.03515625 14.5703125 C-1.04453454 13.08854331 -1.0536347 11.60677235 -1.0625 10.125 C-1.07506836 9.00544922 -1.07506836 9.00544922 -1.08789062 7.86328125 C-1.11328125 2.2265625 -1.11328125 2.2265625 0 0 Z " fill="#A7A7A7" transform="translate(265,31)"/>
<path d="M0 0 C0.66 0 1.32 0 2 0 C2.33 2.31 2.66 4.62 3 7 C4.65 7.33 6.3 7.66 8 8 C8.04898437 8.63808594 8.09796875 9.27617187 8.1484375 9.93359375 C8.22320312 10.75988281 8.29796875 11.58617187 8.375 12.4375 C8.44460938 13.26121094 8.51421875 14.08492187 8.5859375 14.93359375 C8.72257812 15.61550781 8.85921875 16.29742187 9 17 C9.66 17.33 10.32 17.66 11 18 C11 18.66 11 19.32 11 20 C6.38 20 1.76 20 -3 20 C-3 19.34 -3 18.68 -3 18 C-2.34 18 -1.68 18 -1 18 C-1.01160156 16.78441406 -1.02320313 15.56882813 -1.03515625 14.31640625 C-1.04453278 12.73177236 -1.05363313 11.14713682 -1.0625 9.5625 C-1.07506836 8.35883789 -1.07506836 8.35883789 -1.08789062 7.13085938 C-1.0965143 5.08704779 -1.0522815 3.04316098 -1 1 C-0.67 0.67 -0.34 0.34 0 0 Z " fill="#D5D5D5" transform="translate(401,131)"/>
<path d="M0 0 C0.66 0 1.32 0 2 0 C2.33 2.31 2.66 4.62 3 7 C4.65 7.33 6.3 7.66 8 8 C8 11.3 8 14.6 8 18 C8.66 18 9.32 18 10 18 C10 18.66 10 19.32 10 20 C5.71 20 1.42 20 -3 20 C-3 19.34 -3 18.68 -3 18 C-2.34 18 -1.68 18 -1 18 C-1.01160156 16.78441406 -1.02320313 15.56882813 -1.03515625 14.31640625 C-1.04453278 12.73177236 -1.05363313 11.14713682 -1.0625 9.5625 C-1.07506836 8.35883789 -1.07506836 8.35883789 -1.08789062 7.13085938 C-1.0965143 5.08704779 -1.0522815 3.04316098 -1 1 C-0.67 0.67 -0.34 0.34 0 0 Z " fill="#D8D8D8" transform="translate(265,131)"/>
<path d="M0 0 C1.91015625 0.23046875 1.91015625 0.23046875 3.91015625 2.23046875 C4.24878523 5.88766168 4.35280782 8.3672982 2.66015625 11.66796875 C0.91015625 13.23046875 0.91015625 13.23046875 -3.08984375 13.23046875 C-2.75984375 14.88046875 -2.42984375 16.53046875 -2.08984375 18.23046875 C-4.06984375 18.23046875 -6.04984375 18.23046875 -8.08984375 18.23046875 C-7.75984375 17.57046875 -7.42984375 16.91046875 -7.08984375 16.23046875 C-7.04390828 13.70114713 -7.04290644 11.19554264 -7.08984375 8.66796875 C-7.13575045 6.18212098 -7.1368303 3.71781926 -7.08984375 1.23046875 C-5.19495423 -0.66442077 -2.51845229 0.05027763 0 0 Z " fill="#A1A1A1" transform="translate(182.08984375,37.76953125)"/>
<path d="M0 0 C1.32 0 2.64 0 4 0 C4.02684312 2.81256281 4.04676188 5.62487241 4.0625 8.4375 C4.07087891 9.23994141 4.07925781 10.04238281 4.08789062 10.86914062 C4.0965143 12.91295221 4.0522815 14.95683902 4 17 C3 18 3 18 -0.375 18.3125 C-4 18 -4 18 -6 16.3125 C-7.26977481 13.37614576 -7.00200587 12.00601761 -6 9 C-5.34 8.01 -4.68 7.02 -4 6 C-1.375 5.8125 -1.375 5.8125 1 6 C0.67 4.02 0.34 2.04 0 0 Z " fill="#A1A1A1" transform="translate(217,32)"/>
<path d="M0 0 C0.99 0 1.98 0 3 0 C3.33 5.61 3.66 11.22 4 17 C0.9167365 18.54163175 -1.60878099 18.29747535 -5 18 C-7 16.3125 -7 16.3125 -8 14 C-7.7434556 10.49389321 -6.9814066 8.9721099 -5 6 C-2.375 5.8125 -2.375 5.8125 0 6 C0 4.02 0 2.04 0 0 Z " fill="#6E6E6E" transform="translate(218,132)"/>
<path d="M0 0 C1.8125 1.125 1.8125 1.125 3 3 C3.4375 6 3.4375 6 3 9 C0.89294243 11.34117508 -0.46880822 11.90930872 -3.5625 12.4375 C-6 12 -6 12 -7.8125 10.3125 C-9.23011404 7.55188318 -9.54893012 6.05832493 -9 3 C-6.2535647 0.05012505 -3.9597373 -0.60919035 0 0 Z " fill="#ECECEC" transform="translate(47,29)"/>
<path d="M0 0 C2.31282587 3.46923881 2.42478586 4.92205575 2 9 C0.8125 10.875 0.8125 10.875 -1 12 C-3.85480169 12.42822025 -5.34492892 12.40659584 -7.8125 10.875 C-9.55198782 8.12844028 -9.39769128 6.18153026 -9 3 C-6.79614804 -0.6730866 -4.01201782 -0.51217249 0 0 Z " fill="#545454" transform="translate(206,138)"/>
<path d="M0 0 C3.12606798 -0.39907251 5.14511207 -0.46880951 7.9375 1.0625 C9.66665678 4.21566824 8.8590699 6.62508255 8 10 C4.79191085 12.1387261 3.72301503 12.47730962 0 12 C-2.31332486 8.53001271 -2.33957563 7.07490752 -2 3 C-1.34 2.01 -0.68 1.02 0 0 Z " fill="#696969" transform="translate(375,138)"/>
<path d="M0 0 C2.5625 0.3125 2.5625 0.3125 4.375 1.4375 C6.09751881 4.15726654 5.89105599 6.15836249 5.5625 9.3125 C4.5725 10.7975 4.5725 10.7975 3.5625 12.3125 C0.0625 12.6875 0.0625 12.6875 -3.4375 12.3125 C-5.4375 9.3125 -5.4375 9.3125 -5.1875 5.75 C-4.35190798 1.92020324 -4.00005397 0.51282743 0 0 Z " fill="#5F5F5F" transform="translate(202.4375,37.6875)"/>
<path d="M0 0 C3.125 0.25 3.125 0.25 5.0625 1.3125 C6.79165678 4.46566824 5.9840699 6.87508255 5.125 10.25 C1.91691085 12.3887261 0.84801503 12.72730962 -2.875 12.25 C-5.67421583 8.05117625 -4.74058093 6.12872887 -3.875 1.25 C-2.875 0.25 -2.875 0.25 0 0 Z " fill="#696969" transform="translate(417.875,137.75)"/>
<path d="M0 0 C3.63 0 7.26 0 11 0 C11 3.96 11 7.92 11 12 C4.84765625 12.09765625 4.84765625 12.09765625 3 12 C1.43694509 10.43694509 1.69360032 8.72321782 1.5 6.5625 C1.20853056 3.15502495 1.20853056 3.15502495 0 0 Z " fill="#DFDFDF" transform="translate(223,38)"/>
<path d="M0 0 C0.66 0 1.32 0 2 0 C2.33 2.31 2.66 4.62 3 7 C4.65 7.33 6.3 7.66 8 8 C8.06058594 8.62648437 8.12117187 9.25296875 8.18359375 9.8984375 C8.26738281 10.71570313 8.35117188 11.53296875 8.4375 12.375 C8.55931641 13.59316406 8.55931641 13.59316406 8.68359375 14.8359375 C8.89090114 17.04272805 8.89090114 17.04272805 10 19 C8.35 19 6.7 19 5 19 C5.33 15.7 5.66 12.4 6 9 C4.68 9 3.36 9 2 9 C2.33 12.3 2.66 15.6 3 19 C1.35 19 -0.3 19 -2 19 C-1.85982174 16.02046641 -1.71313658 13.04150696 -1.5625 10.0625 C-1.52318359 9.21236328 -1.48386719 8.36222656 -1.44335938 7.48632812 C-1.40146484 6.67744141 -1.35957031 5.86855469 -1.31640625 5.03515625 C-1.27974854 4.2862915 -1.24309082 3.53742676 -1.20532227 2.76586914 C-1 1 -1 1 0 0 Z " fill="#6B6B6B" transform="translate(139,131)"/>
<path d="M0 0 C2.31 0 4.62 0 7 0 C7.33 3.96 7.66 7.92 8 12 C5.03 12 2.06 12 -1 12 C-1.33 10.35 -1.66 8.7 -2 7 C-1.195625 6.566875 -0.39125 6.13375 0.4375 5.6875 C3.27846354 4.19525998 3.27846354 4.19525998 4 1 C3.54625 1.495 3.0925 1.99 2.625 2.5 C1 4 1 4 -1 4 C-0.67 2.68 -0.34 1.36 0 0 Z " fill="#919191" transform="translate(307,38)"/>
<path d="M0 0 C1.99954746 -0.04254356 4.00041636 -0.04080783 6 0 C7.73956658 1.73956658 7.37190386 4.1936622 7.5625 6.5625 C7.64628906 7.57441406 7.73007812 8.58632812 7.81640625 9.62890625 C7.87699219 10.41136719 7.93757813 11.19382813 8 12 C5.03 12 2.06 12 -1 12 C-1.33 10.35 -1.66 8.7 -2 7 C-1.195625 6.566875 -0.39125 6.13375 0.4375 5.6875 C3.27846354 4.19525998 3.27846354 4.19525998 4 1 C3.54625 1.495 3.0925 1.99 2.625 2.5 C1 4 1 4 -1 4 C-0.67 2.68 -0.34 1.36 0 0 Z " fill="#4E4E4E" transform="translate(307,138)"/>
<path d="M0 0 C1.65 0 3.3 0 5 0 C5 2.97 5 5.94 5 9 C5.99 9 6.98 9 8 9 C7.67 6.03 7.34 3.06 7 0 C8.32 0 9.64 0 11 0 C11.33 3.63 11.66 7.26 12 11 C7.65055731 11.86988854 6.02871475 12.03595522 2 11 C1.93941406 10.37351563 1.87882813 9.74703125 1.81640625 9.1015625 C1.73261719 8.28429687 1.64882812 7.46703125 1.5625 6.625 C1.48128906 5.81289062 1.40007812 5.00078125 1.31640625 4.1640625 C1.10909886 1.95727195 1.10909886 1.95727195 0 0 Z " fill="#C3C3C3" transform="translate(223,138)"/>
<path d="M0 0 C0.721875 0.185625 1.44375 0.37125 2.1875 0.5625 C4.98785845 1.16752429 4.98785845 1.16752429 7.6875 0.4375 C8.8321875 0.2209375 8.8321875 0.2209375 10 0 C12.49505962 2.49505962 12.35948376 3.67328888 12.625 7.125 C12.69976562 8.03507813 12.77453125 8.94515625 12.8515625 9.8828125 C12.90054687 10.58148438 12.94953125 11.28015625 13 12 C11.35 12 9.7 12 8 12 C8.33 8.7 8.66 5.4 9 2 C8.01 2.33 7.02 2.66 6 3 C6 5.97 6 8.94 6 12 C4.02 12 2.04 12 0 12 C0.66 11.67 1.32 11.34 2 11 C1.85892253 9.54119891 1.71197585 8.08296449 1.5625 6.625 C1.48128906 5.81289062 1.40007812 5.00078125 1.31640625 4.1640625 C1.10909886 1.95727195 1.10909886 1.95727195 0 0 Z " fill="#696969" transform="translate(330,138)"/>
<path d="M0 0 C4.62 0 9.24 0 14 0 C13.67 0.99 13.34 1.98 13 3 C11.68 2.67 10.36 2.34 9 2 C9.33 7.28 9.66 12.56 10 18 C8.02 18 6.04 18 4 18 C4.66 17.67 5.32 17.34 6 17 C6 12.05 6 7.1 6 2 C4.02 2.33 2.04 2.66 0 3 C0 2.01 0 1.02 0 0 Z " fill="#5D5D5D" transform="translate(121,132)"/>
<path d="M0 0 C1.73956658 1.73956658 1.37190386 4.1936622 1.5625 6.5625 C1.64628906 7.57441406 1.73007812 8.58632813 1.81640625 9.62890625 C1.87699219 10.41136719 1.93757813 11.19382812 2 12 C-0.64 12 -3.28 12 -6 12 C-6.33 10.35 -6.66 8.7 -7 7 C-6.175 6.54625 -5.35 6.0925 -4.5 5.625 C-3.2625 4.820625 -3.2625 4.820625 -2 4 C-2 3.34 -2 2.68 -2 2 C-2.66 2 -3.32 2 -4 2 C-4.33 2.66 -4.66 3.32 -5 4 C-5.66 4 -6.32 4 -7 4 C-7 3.01 -7 2.02 -7 1 C-4.51588385 -0.24205807 -2.74800896 -0.14092354 0 0 Z " fill="#919191" transform="translate(343,38)"/>
<path d="M0 0 C6.0546875 -0.1953125 6.0546875 -0.1953125 8 0 C10.49505962 2.49505962 10.35948376 3.67328888 10.625 7.125 C10.69976562 8.03507812 10.77453125 8.94515625 10.8515625 9.8828125 C10.90054687 10.58148438 10.94953125 11.28015625 11 12 C9.35 12 7.7 12 6 12 C6.66 11.67 7.32 11.34 8 11 C7.67 8.36 7.34 5.72 7 3 C6.01 3 5.02 3 4 3 C4 5.97 4 8.94 4 12 C2.35 12 0.7 12 -1 12 C-0.67 8.04 -0.34 4.08 0 0 Z " fill="#646464" transform="translate(348,38)"/>
<path d="M0 0 C3.5 0.125 3.5 0.125 4.5 1.125 C4.57205511 2.81108966 4.58386068 4.50000659 4.5625 6.1875 C4.55347656 7.10660156 4.54445313 8.02570313 4.53515625 8.97265625 C4.52355469 9.68292969 4.51195312 10.39320313 4.5 11.125 C5.16 11.455 5.82 11.785 6.5 12.125 C4.85 12.125 3.2 12.125 1.5 12.125 C1.83 8.825 2.16 5.525 2.5 2.125 C1.18 2.125 -0.14 2.125 -1.5 2.125 C-1.17 5.425 -0.84 8.725 -0.5 12.125 C-2.15 12.125 -3.8 12.125 -5.5 12.125 C-5.35962479 10.31206911 -5.21255111 8.4996557 -5.0625 6.6875 C-4.98128906 5.67816406 -4.90007812 4.66882813 -4.81640625 3.62890625 C-4.32570438 -0.25430234 -4.09056656 0.14609166 0 0 Z " fill="#676767" transform="translate(431.5,137.875)"/>
<path d="M0 0 C2 2 2 2 2 5 C-0.31 5 -2.62 5 -5 5 C-4.80528889 6.94999129 -4.80528889 6.94999129 -4 9 C-2.0162233 10.28436734 -2.0162233 10.28436734 0 11 C-2.3125 11.6875 -2.3125 11.6875 -5 12 C-6.8125 10.9375 -6.8125 10.9375 -8 9 C-8.39769128 5.81846974 -8.55198782 3.87155972 -6.8125 1.125 C-4.38241919 -0.38332602 -2.80984248 -0.36023622 0 0 Z " fill="#909090" transform="translate(447,138)"/>
<path d="M0 0 C3.5625 0.1875 3.5625 0.1875 5.5625 2.1875 C5.875 5.6875 5.875 5.6875 5.5625 9.1875 C4.5725 9.8475 3.5825 10.5075 2.5625 11.1875 C2.5625 8.2175 2.5625 5.2475 2.5625 2.1875 C1.2425 2.5175 -0.0775 2.8475 -1.4375 3.1875 C-1.416875 4.38375 -1.39625 5.58 -1.375 6.8125 C-1.36867429 10.36754869 -1.73861125 13.69305624 -2.4375 17.1875 C-3.0975 17.1875 -3.7575 17.1875 -4.4375 17.1875 C-4.46434679 14.54159986 -4.48426357 11.89596904 -4.5 9.25 C-4.50837891 8.49525391 -4.51675781 7.74050781 -4.52539062 6.96289062 C-4.53402441 5.03755687 -4.48974333 3.11214419 -4.4375 1.1875 C-3.4375 0.1875 -3.4375 0.1875 0 0 Z " fill="#383838" transform="translate(180.4375,137.8125)"/>
<path d="M0 0 C1.91015625 0.23046875 1.91015625 0.23046875 3.91015625 2.23046875 C4.03515625 5.85546875 4.03515625 5.85546875 3.91015625 9.23046875 C2.92015625 9.72546875 2.92015625 9.72546875 1.91015625 10.23046875 C1.25015625 7.92046875 0.59015625 5.61046875 -0.08984375 3.23046875 C-1.07984375 3.23046875 -2.06984375 3.23046875 -3.08984375 3.23046875 C-3.41984375 7.85046875 -3.74984375 12.47046875 -4.08984375 17.23046875 C-4.74984375 17.23046875 -5.40984375 17.23046875 -6.08984375 17.23046875 C-6.28370867 14.58495819 -6.47022642 11.93929092 -6.65234375 9.29296875 C-6.70841797 8.53822266 -6.76449219 7.78347656 -6.82226562 7.00585938 C-6.95160532 5.08300917 -7.02501287 3.15657327 -7.08984375 1.23046875 C-5.19495423 -0.66442077 -2.51845229 0.05027763 0 0 Z " fill="#464646" transform="translate(182.08984375,37.76953125)"/>
<path d="M0 0 C3.5625 0.1875 3.5625 0.1875 5.5625 2.1875 C5.6875 5.8125 5.6875 5.8125 5.5625 9.1875 C4.5725 9.6825 4.5725 9.6825 3.5625 10.1875 C3.2325 7.5475 2.9025 4.9075 2.5625 2.1875 C1.2425 2.5175 -0.0775 2.8475 -1.4375 3.1875 C-1.416875 4.38375 -1.39625 5.58 -1.375 6.8125 C-1.36867429 10.36754869 -1.73861125 13.69305624 -2.4375 17.1875 C-3.0975 17.1875 -3.7575 17.1875 -4.4375 17.1875 C-4.46434679 14.54159986 -4.48426357 11.89596904 -4.5 9.25 C-4.50837891 8.49525391 -4.51675781 7.74050781 -4.52539062 6.96289062 C-4.53402441 5.03755687 -4.48974333 3.11214419 -4.4375 1.1875 C-3.4375 0.1875 -3.4375 0.1875 0 0 Z " fill="#434343" transform="translate(391.4375,137.8125)"/>
<path d="M0 0 C1.99954746 -0.04254356 4.00041636 -0.04080783 6 0 C7.73956658 1.73956658 7.37190386 4.1936622 7.5625 6.5625 C7.64628906 7.57441406 7.73007812 8.58632813 7.81640625 9.62890625 C7.87699219 10.41136719 7.93757813 11.19382812 8 12 C5.36 12 2.72 12 0 12 C-0.33 10.35 -0.66 8.7 -1 7 C-0.34 6.67 0.32 6.34 1 6 C1 7.32 1 8.64 1 10 C1.99 9.67 2.98 9.34 4 9 C4 6.69 4 4.38 4 2 C3.34 2 2.68 2 2 2 C1.67 2.66 1.34 3.32 1 4 C0.34 4 -0.32 4 -1 4 C-0.67 2.68 -0.34 1.36 0 0 Z " fill="#575757" transform="translate(278,38)"/>
<path d="M0 0 C1.66611905 -0.042721 3.33382885 -0.04063832 5 0 C6.73956658 1.73956658 6.37190386 4.1936622 6.5625 6.5625 C6.64628906 7.57441406 6.73007812 8.58632813 6.81640625 9.62890625 C6.87699219 10.41136719 6.93757813 11.19382812 7 12 C4.36 12 1.72 12 -1 12 C-1.33 10.35 -1.66 8.7 -2 7 C-1.34 7 -0.68 7 0 7 C0 7.99 0 8.98 0 10 C0.99 9.67 1.98 9.34 3 9 C3 6.69 3 4.38 3 2 C2.34 1.67 1.68 1.34 1 1 C1 1.99 1 2.98 1 4 C0.01 4 -0.98 4 -2 4 C-1.34 2.68 -0.68 1.36 0 0 Z " fill="#5B5B5B" transform="translate(391,38)"/>
<path d="M0 0 C1.98 0 3.96 0 6 0 C5.67 1.32 5.34 2.64 5 4 C4.67 3.01 4.34 2.02 4 1 C3.01 1 2.02 1 1 1 C2.24546405 4.73639216 3.63404953 5.18756513 7 7 C6.125 10.875 6.125 10.875 5 12 C2.66702567 12.04092937 0.33294775 12.04241723 -2 12 C-2 11.01 -2 10.02 -2 9 C-0.02 9.66 1.96 10.32 4 11 C2.86695008 7.60085025 1.87481525 6.94745549 -1 5 C-0.67 3.35 -0.34 1.7 0 0 Z " fill="#707070" transform="translate(290,138)"/>
<path d="M0 0 C1.32 0 2.64 0 4 0 C4 2.97 4 5.94 4 9 C5.32 9.66 6.64 10.32 8 11 C3.71 11 -0.58 11 -5 11 C-4.67 10.34 -4.34 9.68 -4 9 C-2.68 9 -1.36 9 0 9 C0 6.03 0 3.06 0 0 Z " fill="#EDEDED" transform="translate(430,140)"/>
<path d="M0 0 C1.4540625 0.0309375 1.4540625 0.0309375 2.9375 0.0625 C2.6075 1.3825 2.2775 2.7025 1.9375 4.0625 C1.6075 3.0725 1.2775 2.0825 0.9375 1.0625 C-0.0525 1.0625 -1.0425 1.0625 -2.0625 1.0625 C-1.37364204 4.27311378 -1.37364204 4.27311378 1.5 5.4375 C2.304375 5.97375 3.10875 6.51 3.9375 7.0625 C4.25 9.75 4.25 9.75 3.9375 12.0625 C1.2975 12.0625 -1.3425 12.0625 -4.0625 12.0625 C-4.0625 11.4025 -4.0625 10.7425 -4.0625 10.0625 C-1.5875 10.5575 -1.5875 10.5575 0.9375 11.0625 C0.26881686 7.94917752 0.26881686 7.94917752 -2.125 6.875 C-2.764375 6.606875 -3.40375 6.33875 -4.0625 6.0625 C-4.105221 4.39638095 -4.10313832 2.72867115 -4.0625 1.0625 C-3.0625 0.0625 -3.0625 0.0625 0 0 Z " fill="#717171" transform="translate(293.0625,37.9375)"/>
<path d="M0 0 C2.64 0 5.28 0 8 0 C8 0.99 8 1.98 8 3 C6.68 3 5.36 3 4 3 C4.33 5.97 4.66 8.94 5 12 C3.35 12 1.7 12 0 12 C0 8.04 0 4.08 0 0 Z " fill="#6C6C6C" transform="translate(188,138)"/>
<path d="M0 0 C2.31 0 4.62 0 7 0 C7 0.99 7 1.98 7 3 C5.68 3 4.36 3 3 3 C3.33 5.97 3.66 8.94 4 12 C2.02 12 0.04 12 -2 12 C-1.34 11.67 -0.68 11.34 0 11 C0 7.37 0 3.74 0 0 Z " fill="#494949" transform="translate(381,38)"/>
<path d="M0 0 C3.69230769 0.69230769 3.69230769 0.69230769 5 2 C5.04092937 4.33297433 5.04241723 6.66705225 5 9 C3.125 9.625 3.125 9.625 1 10 C-1 8 -1 8 -1.1875 4.4375 C-1 1 -1 1 0 0 Z " fill="#FBFBFB" transform="translate(201,39)"/>
<path d="M0 0 C1.4540625 0.0309375 1.4540625 0.0309375 2.9375 0.0625 C2.9375 1.0525 2.9375 2.0425 2.9375 3.0625 C1.6175 3.0625 0.2975 3.0625 -1.0625 3.0625 C-0.7325 6.0325 -0.4025 9.0025 -0.0625 12.0625 C-2.0425 12.0625 -4.0225 12.0625 -6.0625 12.0625 C-5.4025 11.7325 -4.7425 11.4025 -4.0625 11.0625 C-4.07410156 10.35222656 -4.08570313 9.64195312 -4.09765625 8.91015625 C-4.10667969 7.99105469 -4.11570312 7.07195312 -4.125 6.125 C-4.13660156 5.20847656 -4.14820313 4.29195312 -4.16015625 3.34765625 C-4.00919455 -0.18484756 -3.60673121 0.07360676 0 0 Z " fill="#494949" transform="translate(369.0625,137.9375)"/>
<path d="M0 0 C3.69230769 0.69230769 3.69230769 0.69230769 5 2 C5.04080783 3.99958364 5.04254356 6.00045254 5 8 C3.02 8.99 3.02 8.99 1 10 C-1 8 -1 8 -1.1875 4.4375 C-1 1 -1 1 0 0 Z " fill="#EBEBEB" transform="translate(201,139)"/>
<path d="M0 0 C0.33 1.32 0.66 2.64 1 4 C0.34 4 -0.32 4 -1 4 C-1.33 3.34 -1.66 2.68 -2 2 C-2.66 2 -3.32 2 -4 2 C-4 4.31 -4 6.62 -4 9 C-2.35 9 -0.7 9 1 9 C1 9.66 1 10.32 1 11 C-1.31 11.33 -3.62 11.66 -6 12 C-8.31282587 8.53076119 -8.42478586 7.07794425 -8 3 C-5.87141064 -0.36093057 -3.79035926 -0.30732643 0 0 Z " fill="#4F4F4F" transform="translate(245,38)"/>
<path d="M0 0 C0.33 0 0.66 0 1 0 C1.309375 1.134375 1.61875 2.26875 1.9375 3.4375 C2.62924531 6.78775099 2.62924531 6.78775099 4 8 C4.07179964 9.51928038 4.08392007 11.04167482 4.0625 12.5625 C4.05347656 13.38878906 4.04445312 14.21507812 4.03515625 15.06640625 C4.01775391 16.02353516 4.01775391 16.02353516 4 17 C2.35 17.33 0.7 17.66 -1 18 C-0.505 9.09 -0.505 9.09 0 0 Z " fill="#E5E5E5" transform="translate(221,32)"/>
<path d="M0 0 C1.32 0.66 2.64 1.32 4 2 C4 4.31 4 6.62 4 9 C2.68 9.33 1.36 9.66 0 10 C-2.14915785 6.77626323 -2.38286803 5.73296326 -2 2 C-1.34 1.34 -0.68 0.68 0 0 Z " fill="#EFEFEF" transform="translate(417,139)"/>
<path d="M0 0 C1.32 0.66 2.64 1.32 4 2 C4 4.31 4 6.62 4 9 C2.68 9.33 1.36 9.66 0 10 C-2.14915785 6.77626323 -2.38286803 5.73296326 -2 2 C-1.34 1.34 -0.68 0.68 0 0 Z " fill="#EFEFEF" transform="translate(377,139)"/>
<path d="M0 0 C0.33 0 0.66 0 1 0 C1.309375 1.134375 1.61875 2.26875 1.9375 3.4375 C2.62924531 6.78775099 2.62924531 6.78775099 4 8 C4.07179964 9.51928038 4.08392007 11.04167482 4.0625 12.5625 C4.05347656 13.38878906 4.04445312 14.21507812 4.03515625 15.06640625 C4.01775391 16.02353516 4.01775391 16.02353516 4 17 C2.35 17.33 0.7 17.66 -1 18 C-0.67 17.34 -0.34 16.68 0 16 C0.07181821 13.28239892 0.09299506 10.59140612 0.0625 7.875 C0.05798828 7.12089844 0.05347656 6.36679688 0.04882812 5.58984375 C0.03703499 3.72652873 0.01909942 1.86325445 0 0 Z " fill="#E8E8E8" transform="translate(221,132)"/>
<path d="M0 0 C2.31 0 4.62 0 7 0 C7 0.99 7 1.98 7 3 C5.68 3 4.36 3 3 3 C3.33 5.97 3.66 8.94 4 12 C2.35 12 0.7 12 -1 12 C-0.67 8.04 -0.34 4.08 0 0 Z " fill="#686868" transform="translate(189,38)"/>
<path d="M0 0 C3.125 -0.1875 3.125 -0.1875 6 0 C6.33 1.32 6.66 2.64 7 4 C6.34 4 5.68 4 5 4 C4.67 3.34 4.34 2.68 4 2 C3.01 2.33 2.02 2.66 1 3 C1 4.65 1 6.3 1 8 C1.928125 8.2165625 1.928125 8.2165625 2.875 8.4375 C5 9 5 9 7 10 C5 12 5 12 2.5 12.3125 C1.2625 12.1578125 1.2625 12.1578125 0 12 C-2.31332486 8.53001271 -2.33957563 7.07490752 -2 3 C-1.34 2.01 -0.68 1.02 0 0 Z " fill="#4F4F4F" transform="translate(354,138)"/>
<path d="M0 0 C1.32 0 2.64 0 4 0 C4.625 3.375 4.625 3.375 5 7 C4.34 7.66 3.68 8.32 3 9 C0.875 8.625 0.875 8.625 -1 8 C-1.04241723 5.66705225 -1.04092937 3.33297433 -1 1 C-0.67 0.67 -0.34 0.34 0 0 Z " fill="#E5E5E5" transform="translate(390,140)"/>
<path d="M0 0 C1.98 0 3.96 0 6 0 C5.67 0.99 5.34 1.98 5 3 C4.01 2.67 3.02 2.34 2 2 C2 2.66 2 3.32 2 4 C4.46326712 5.6446674 4.46326712 5.6446674 7 7 C6.67 8.65 6.34 10.3 6 12 C3.69 12 1.38 12 -1 12 C-0.67 11.01 -0.34 10.02 0 9 C2.475 9.99 2.475 9.99 5 11 C5 10.01 5 9.02 5 8 C4.195625 7.7525 3.39125 7.505 2.5625 7.25 C0 6 0 6 -0.875 4 C-1 2 -1 2 0 0 Z " fill="#676767" transform="translate(159,38)"/>
<path d="M0 0 C3.125 -0.1875 3.125 -0.1875 6 0 C6.66 1.32 7.32 2.64 8 4 C7.01 4 6.02 4 5 4 C4.67 3.34 4.34 2.68 4 2 C3.01 2.33 2.02 2.66 1 3 C1.18415432 5.94091587 1.18415432 5.94091587 2 9 C3.95163118 10.43637698 3.95163118 10.43637698 6 11 C3.6875 11.6875 3.6875 11.6875 1 12 C-0.8125 10.9375 -0.8125 10.9375 -2 9 C-2.42478586 4.92205575 -2.31282587 3.46923881 0 0 Z " fill="#4B4B4B" transform="translate(239,138)"/>
<path d="M0 0 C0.33 1.32 0.66 2.64 1 4 C0.34 4 -0.32 4 -1 4 C-1.33 3.34 -1.66 2.68 -2 2 C-2.99 2.33 -3.98 2.66 -5 3 C-5 4.65 -5 6.3 -5 8 C-2.525 8.99 -2.525 8.99 0 10 C-0.33 10.66 -0.66 11.32 -1 12 C-3.375 12.1875 -3.375 12.1875 -6 12 C-8.31282587 8.53076119 -8.42478586 7.07794425 -8 3 C-5.87141064 -0.36093057 -3.79035926 -0.30732643 0 0 Z " fill="#595959" transform="translate(332,38)"/>
<path d="M0 0 C2.97 0.495 2.97 0.495 6 1 C6 4.3 6 7.6 6 11 C4.68 11 3.36 11 2 11 C1.93941406 10.37351563 1.87882812 9.74703125 1.81640625 9.1015625 C1.73261719 8.28429687 1.64882813 7.46703125 1.5625 6.625 C1.48128906 5.81289062 1.40007812 5.00078125 1.31640625 4.1640625 C1.10909886 1.95727195 1.10909886 1.95727195 0 0 Z " fill="#F4F4F4" transform="translate(340,138)"/>
<path d="M0 0 C2.0625 0.4375 2.0625 0.4375 4 1 C4 3.64 4 6.28 4 9 C2.35 9 0.7 9 -1 9 C-1.09765625 2.84765625 -1.09765625 2.84765625 -1 1 C-0.67 0.67 -0.34 0.34 0 0 Z " fill="#E9E9E9" transform="translate(352,40)"/>
<path d="M0 0 C0.99 0.33 1.98 0.66 3 1 C3 1.99 3 2.98 3 4 C0.36 4 -2.28 4 -5 4 C-4.28436734 6.0162233 -4.28436734 6.0162233 -3 8 C-0.94999129 8.80528889 -0.94999129 8.80528889 1 9 C1 9.66 1 10.32 1 11 C-4.75 10.25 -4.75 10.25 -7 8 C-7.125 4.875 -7.125 4.875 -7 2 C-4.69 2.33 -2.38 2.66 0 3 C0 2.01 0 1.02 0 0 Z " fill="#505050" transform="translate(375,39)"/>
<path d="M0 0 C0.66 0 1.32 0 2 0 C2.33 3.63 2.66 7.26 3 11 C0.36 11 -2.28 11 -5 11 C-5.33 9.35 -5.66 7.7 -6 6 C-5.34 5.67 -4.68 5.34 -4 5 C-4 6.32 -4 7.64 -4 9 C-3.01 8.67 -2.02 8.34 -1 8 C-0.67 5.36 -0.34 2.72 0 0 Z " fill="#505050" transform="translate(283,139)"/>
<path d="M0 0 C1.32 0 2.64 0 4 0 C4.33 3.96 4.66 7.92 5 12 C3.35 12 1.7 12 0 12 C0 8.04 0 4.08 0 0 Z " fill="#636363" transform="translate(151,138)"/>
<path d="M0 0 C0.99 0.33 1.98 0.66 3 1 C3 3.64 3 6.28 3 9 C1.35 8.67 -0.3 8.34 -2 8 C-2.125 5.125 -2.125 5.125 -2 2 C-1.34 1.34 -0.68 0.68 0 0 Z " fill="#F1F1F1" transform="translate(215,139)"/>
<path d="M0 0 C0.66 0 1.32 0 2 0 C2.06058594 1.13179687 2.12117188 2.26359375 2.18359375 3.4296875 C2.26799917 4.91147145 2.35264717 6.3932416 2.4375 7.875 C2.47681641 8.62136719 2.51613281 9.36773437 2.55664062 10.13671875 C2.71573624 14.19986864 2.71573624 14.19986864 4 18 C2.35 18 0.7 18 -1 18 C-0.505 9.09 -0.505 9.09 0 0 Z " fill="#4C4C4C" transform="translate(264,132)"/>
<path d="M0 0 C0.66 0 1.32 0 2 0 C2.06058594 1.13179687 2.12117188 2.26359375 2.18359375 3.4296875 C2.26799917 4.91147145 2.35264717 6.3932416 2.4375 7.875 C2.47681641 8.62136719 2.51613281 9.36773437 2.55664062 10.13671875 C2.71573624 14.19986864 2.71573624 14.19986864 4 18 C2.35 18 0.7 18 -1 18 C-0.505 9.09 -0.505 9.09 0 0 Z " fill="#525252" transform="translate(400,132)"/>
<path d="M0 0 C1.32 0 2.64 0 4 0 C4 3.3 4 6.6 4 10 C3.01 10.33 2.02 10.66 1 11 C-0.20272819 8.59454362 -0.10071472 7.05003047 -0.0625 4.375 C-0.05347656 3.55773438 -0.04445313 2.74046875 -0.03515625 1.8984375 C-0.02355469 1.27195313 -0.01195312 0.64546875 0 0 Z " fill="#E1E1E1" transform="translate(344,39)"/>
<path d="M0 0 C1.32 0 2.64 0 4 0 C4 5.61 4 11.22 4 17 C3.34 17.33 2.68 17.66 2 18 C2 12.72 2 7.44 2 2 C1.34 2 0.68 2 0 2 C0 1.34 0 0.68 0 0 Z " fill="#535353" transform="translate(217,32)"/>
<path d="M0 0 C0.99 0 1.98 0 3 0 C3.33 3.96 3.66 7.92 4 12 C2.35 12 0.7 12 -1 12 C-0.67 8.04 -0.34 4.08 0 0 Z " fill="#5D5D5D" transform="translate(346,138)"/>
<path d="M0 0 C0.99 0 1.98 0 3 0 C3.33 3.96 3.66 7.92 4 12 C2.35 12 0.7 12 -1 12 C-0.67 8.04 -0.34 4.08 0 0 Z " fill="#5F5F5F" transform="translate(152,38)"/>
<path d="M0 0 C3.875 0.875 3.875 0.875 5 2 C5.23287008 3.68183948 5.41264166 5.3712416 5.5625 7.0625 C5.64628906 7.98160156 5.73007812 8.90070312 5.81640625 9.84765625 C5.87699219 10.55792969 5.93757813 11.26820312 6 12 C4.68 12 3.36 12 2 12 C2 8.7 2 5.4 2 2 C1.34 2 0.68 2 0 2 C0 1.34 0 0.68 0 0 Z " fill="#626262" transform="translate(269,38)"/>
<path d="M0 0 C2.31 0 4.62 0 7 0 C7.625 1.8125 7.625 1.8125 8 4 C7.01 5.485 7.01 5.485 6 7 C3.5625 6.3125 3.5625 6.3125 1 5 C0.1875 2.375 0.1875 2.375 0 0 Z " fill="#D7D7D7" transform="translate(442,143)"/>
<path d="M0 0 C1.98 0 3.96 0 6 0 C5.67 2.97 5.34 5.94 5 9 C3.68 9.33 2.36 9.66 1 10 C1 8.35 1 6.7 1 5 C1.66 4.67 2.32 4.34 3 4 C3.33 3.01 3.66 2.02 4 1 C3.54625 1.495 3.0925 1.99 2.625 2.5 C1 4 1 4 -1 4 C-0.67 2.68 -0.34 1.36 0 0 Z " fill="#A9A9A9" transform="translate(307,138)"/>
<path d="M0 0 C1.98 0 3.96 0 6 0 C5.67 2.97 5.34 5.94 5 9 C3.68 9.33 2.36 9.66 1 10 C1 8.35 1 6.7 1 5 C1.66 4.67 2.32 4.34 3 4 C3.33 3.01 3.66 2.02 4 1 C3.54625 1.495 3.0925 1.99 2.625 2.5 C1 4 1 4 -1 4 C-0.67 2.68 -0.34 1.36 0 0 Z " fill="#AEAEAE" transform="translate(278,138)"/>
<path d="M0 0 C1.98 0 3.96 0 6 0 C5.67 0.99 5.34 1.98 5 3 C4.01 2.67 3.02 2.34 2 2 C2 2.66 2 3.32 2 4 C3.2375 4.680625 3.2375 4.680625 4.5 5.375 C5.325 5.91125 6.15 6.4475 7 7 C7 8.32 7 9.64 7 11 C6.34 11 5.68 11 5 11 C4.67 10.01 4.34 9.02 4 8 C1.50240018 6.30117552 1.50240018 6.30117552 -1 5 C-0.67 3.35 -0.34 1.7 0 0 Z " fill="#646464" transform="translate(159,138)"/>
<path d="M0 0 C1.32 0 2.64 0 4 0 C4 2.97 4 5.94 4 9 C2.68 9 1.36 9 0 9 C0 6.03 0 3.06 0 0 Z " fill="#F1F1F1" transform="translate(141,140)"/>
<path d="M0 0 C0.33 0.66 0.66 1.32 1 2 C1.99 2.33 2.98 2.66 4 3 C3.01 3 2.02 3 1 3 C1 5.97 1 8.94 1 12 C1.99 12 2.98 12 4 12 C4 12.66 4 13.32 4 14 C2.35 13.67 0.7 13.34 -1 13 C-1.22151549 11.20991533 -1.42682213 9.41781838 -1.625 7.625 C-1.74101562 6.62726562 -1.85703125 5.62953125 -1.9765625 4.6015625 C-1.98429688 3.74304687 -1.99203125 2.88453125 -2 2 C-1.34 1.34 -0.68 0.68 0 0 Z " fill="#525252" transform="translate(251,36)"/>
<path d="M0 0 C0.99 0.33 1.98 0.66 3 1 C3 3.31 3 5.62 3 8 C1.68 8.33 0.36 8.66 -1 9 C-1.66 7.02 -2.32 5.04 -3 3 C-2.34 3 -1.68 3 -1 3 C-0.67 2.01 -0.34 1.02 0 0 Z " fill="#D8D8D8" transform="translate(280,39)"/>
<path d="M0 0 C0.99 0 1.98 0 3 0 C3 2.97 3 5.94 3 9 C1.68 9 0.36 9 -1 9 C-1.09765625 2.84765625 -1.09765625 2.84765625 -1 1 C-0.67 0.67 -0.34 0.34 0 0 Z " fill="#F4F4F4" transform="translate(336,140)"/>
<path d="M0 0 C0.33 0 0.66 0 1 0 C1 1.98 1 3.96 1 6 C0.67 5.34 0.34 4.68 0 4 C-0.66 4 -1.32 4 -2 4 C-2 4.66 -2 5.32 -2 6 C-4.31 5.67 -6.62 5.34 -9 5 C-9 4.01 -9 3.02 -9 2 C-6.03 2 -3.06 2 0 2 C0 1.34 0 0.68 0 0 Z " fill="#EFEFEF" transform="translate(379,41)"/>
<path d="M0 0 C0.33 0.66 0.66 1.32 1 2 C1.99 2.33 2.98 2.66 4 3 C3.01 3 2.02 3 1 3 C1 5.97 1 8.94 1 12 C1.99 12.33 2.98 12.66 4 13 C2.0625 13.5625 2.0625 13.5625 0 14 C-1 13 -1 13 -1.1328125 10.3125 C-1.13023437 9.219375 -1.12765625 8.12625 -1.125 7 C-1.12757813 5.906875 -1.13015625 4.81375 -1.1328125 3.6875 C-1 1 -1 1 0 0 Z " fill="#505050" transform="translate(251,136)"/>
<path d="M0 0 C1.32 0.33 2.64 0.66 4 1 C4 3.31 4 5.62 4 8 C2.68 8.33 1.36 8.66 0 9 C0 6.03 0 3.06 0 0 Z " fill="#F5F5F5" transform="translate(179,40)"/>
<path d="M0 0 C1.32 0 2.64 0 4 0 C4 3.3 4 6.6 4 10 C4.99 10 5.98 10 7 10 C7 10.66 7 11.32 7 12 C5.35 11.67 3.7 11.34 2 11 C1.93941406 10.37351563 1.87882813 9.74703125 1.81640625 9.1015625 C1.73261719 8.28429687 1.64882812 7.46703125 1.5625 6.625 C1.48128906 5.81289062 1.40007812 5.00078125 1.31640625 4.1640625 C1.10909886 1.95727195 1.10909886 1.95727195 0 0 Z " fill="#4C4C4C" transform="translate(223,138)"/>
<path d="M0 0 C1.65 0.33 3.3 0.66 5 1 C5.33 4.63 5.66 8.26 6 12 C4.68 11.67 3.36 11.34 2 11 C2.33 8.03 2.66 5.06 3 2 C1.68 1.67 0.36 1.34 -1 1 C-0.67 0.67 -0.34 0.34 0 0 Z " fill="#4B4B4B" transform="translate(360,38)"/>
<path d="M0 0 C1.32 0 2.64 0 4 0 C4 2.64 4 5.28 4 8 C2.68 8 1.36 8 0 8 C0 5.36 0 2.72 0 0 Z " fill="#FAFAFA" transform="translate(214,40)"/>
<path d="M0 0 C1 1 1 1 1.25 4.4375 C1.1675 5.613125 1.085 6.78875 1 8 C0.01 8.66 -0.98 9.32 -2 10 C-2 7.03 -2 4.06 -2 1 C-3.65 1.33 -5.3 1.66 -7 2 C-7 1.34 -7 0.68 -7 0 C-4.31633121 -1.3418344 -2.84719317 -0.73004953 0 0 Z " fill="#515151" transform="translate(185,139)"/>
<path d="M0 0 C1.32 0.33 2.64 0.66 4 1 C4 4.3 4 7.6 4 11 C4.66 11.33 5.32 11.66 6 12 C4.02 12 2.04 12 0 12 C0.66 11.67 1.32 11.34 2 11 C1.85892253 9.54119891 1.71197585 8.08296449 1.5625 6.625 C1.48128906 5.81289062 1.40007812 5.00078125 1.31640625 4.1640625 C1.10909886 1.95727195 1.10909886 1.95727195 0 0 Z " fill="#4C4C4C" transform="translate(330,138)"/>
<path d="M0 0 C1.32 0.33 2.64 0.66 4 1 C4.06058594 1.62648437 4.12117187 2.25296875 4.18359375 2.8984375 C4.26738281 3.71570313 4.35117188 4.53296875 4.4375 5.375 C4.55931641 6.59316406 4.55931641 6.59316406 4.68359375 7.8359375 C4.89090114 10.04272805 4.89090114 10.04272805 6 12 C4.35 12 2.7 12 1 12 C1.01160156 11.30132812 1.02320313 10.60265625 1.03515625 9.8828125 C1.04417969 8.97273437 1.05320313 8.06265625 1.0625 7.125 C1.07410156 6.22007812 1.08570313 5.31515625 1.09765625 4.3828125 C1.16249257 1.9831415 1.16249257 1.9831415 0 0 Z " fill="#4F4F4F" transform="translate(143,138)"/>
<path d="M0 0 C1.32 0.33 2.64 0.66 4 1 C4.06058594 1.62648437 4.12117188 2.25296875 4.18359375 2.8984375 C4.26738281 3.71570313 4.35117187 4.53296875 4.4375 5.375 C4.55931641 6.59316406 4.55931641 6.59316406 4.68359375 7.8359375 C4.89090114 10.04272805 4.89090114 10.04272805 6 12 C4.35 12 2.7 12 1 12 C1.01160156 11.30132812 1.02320313 10.60265625 1.03515625 9.8828125 C1.04417969 8.97273437 1.05320312 8.06265625 1.0625 7.125 C1.07410156 6.22007812 1.08570313 5.31515625 1.09765625 4.3828125 C1.16249257 1.9831415 1.16249257 1.9831415 0 0 Z " fill="#505050" transform="translate(405,138)"/>
<path d="M0 0 C1.73956658 1.73956658 1.37190386 4.1936622 1.5625 6.5625 C1.64628906 7.57441406 1.73007812 8.58632813 1.81640625 9.62890625 C1.87699219 10.41136719 1.93757813 11.19382812 2 12 C1.34 12 0.68 12 0 12 C-0.66 8.7 -1.32 5.4 -2 2 C-2.66 2 -3.32 2 -4 2 C-4.33 2.66 -4.66 3.32 -5 4 C-5.66 4 -6.32 4 -7 4 C-7 3.01 -7 2.02 -7 1 C-4.51588385 -0.24205807 -2.74800896 -0.14092354 0 0 Z " fill="#555555" transform="translate(343,38)"/>
<path d="M0 0 C1.98 0.495 1.98 0.495 4 1 C4.33 4.63 4.66 8.26 5 12 C3.68 11.67 2.36 11.34 1 11 C1.33 8.03 1.66 5.06 2 2 C1.01 1.67 0.02 1.34 -1 1 C-0.67 0.67 -0.34 0.34 0 0 Z " fill="#4E4E4E" transform="translate(143,38)"/>
<path d="M0 0 C0.99 0.33 1.98 0.66 3 1 C3.73046875 2.84765625 3.73046875 2.84765625 4.1875 5.0625 C4.34605469 5.79597656 4.50460937 6.52945313 4.66796875 7.28515625 C4.83232422 8.13400391 4.83232422 8.13400391 5 9 C4.01 9.33 3.02 9.66 2 10 C1.34 9.67 0.68 9.34 0 9 C0 6.03 0 3.06 0 0 Z " fill="#DBDBDB" transform="translate(436,140)"/>
<path d="M0 0 C1.32 0.33 2.64 0.66 4 1 C4 4.3 4 7.6 4 11 C4.66 11.33 5.32 11.66 6 12 C4.35 12 2.7 12 1 12 C1.01160156 11.30132812 1.02320313 10.60265625 1.03515625 9.8828125 C1.04417969 8.97273437 1.05320312 8.06265625 1.0625 7.125 C1.07410156 6.22007812 1.08570313 5.31515625 1.09765625 4.3828125 C1.16249257 1.9831415 1.16249257 1.9831415 0 0 Z " fill="#494949" transform="translate(432,138)"/>
<path d="M0 0 C1.32 0.33 2.64 0.66 4 1 C4 4.3 4 7.6 4 11 C4.66 11.33 5.32 11.66 6 12 C4.35 12 2.7 12 1 12 C1.01160156 11.30132812 1.02320313 10.60265625 1.03515625 9.8828125 C1.04417969 8.97273437 1.05320312 8.06265625 1.0625 7.125 C1.07410156 6.22007812 1.08570313 5.31515625 1.09765625 4.3828125 C1.16249257 1.9831415 1.16249257 1.9831415 0 0 Z " fill="#4D4D4D" transform="translate(269,138)"/>
<path d="M0 0 C1.953125 0.6796875 1.953125 0.6796875 4 2 C4.609375 4.3828125 4.609375 4.3828125 4.75 7.125 C4.80671875 8.03507812 4.8634375 8.94515625 4.921875 9.8828125 C4.94765625 10.58148438 4.9734375 11.28015625 5 12 C3.35 12 1.7 12 0 12 C0.66 11.67 1.32 11.34 2 11 C1.855625 9.741875 1.71125 8.48375 1.5625 7.1875 C1.48128906 6.47980469 1.40007812 5.77210937 1.31640625 5.04296875 C1.02829265 2.80603607 1.02829265 2.80603607 0 0 Z " fill="#404040" transform="translate(354,38)"/>
<path d="M0 0 C1.32 0 2.64 0 4 0 C4.06058594 0.69867188 4.12117187 1.39734375 4.18359375 2.1171875 C4.26738281 3.02726562 4.35117188 3.93734375 4.4375 4.875 C4.51871094 5.77992187 4.59992188 6.68484375 4.68359375 7.6171875 C4.86989285 10.01110861 4.86989285 10.01110861 6 12 C4.68 11.67 3.36 11.34 2 11 C1.93941406 10.37351562 1.87882813 9.74703125 1.81640625 9.1015625 C1.73261719 8.28429688 1.64882812 7.46703125 1.5625 6.625 C1.48128906 5.81289063 1.40007812 5.00078125 1.31640625 4.1640625 C1.10909886 1.95727195 1.10909886 1.95727195 0 0 Z " fill="#444444" transform="translate(223,38)"/>
<path d="M0 0 C0.33 0 0.66 0 1 0 C1.33 3.3 1.66 6.6 2 10 C1.401875 9.38125 0.80375 8.7625 0.1875 8.125 C-2.00811144 5.86323046 -2.00811144 5.86323046 -5 4 C-4.67 3.01 -4.34 2.02 -4 1 C-3.01 1.33 -2.02 1.66 -1 2 C-0.67 1.34 -0.34 0.68 0 0 Z " fill="#CECECE" transform="translate(165,138)"/>
<path d="M0 0 C0.33 0 0.66 0 1 0 C1.2475 1.11375 1.495 2.2275 1.75 3.375 C2.61005339 7.04615198 2.61005339 7.04615198 5.125 8.4375 C5.74375 8.623125 6.3625 8.80875 7 9 C4.6875 9.6875 4.6875 9.6875 2 10 C0.1875 8.9375 0.1875 8.9375 -1 7 C-1.25 3.875 -1.25 3.875 -1 1 C-0.67 0.67 -0.34 0.34 0 0 Z " fill="#4D4D4D" transform="translate(440,140)"/>
<path d="M0 0 C0 1.32 0 2.64 0 4 C-1.98 4 -3.96 4 -6 4 C-6 2.68 -6 1.36 -6 0 C-3.50907189 -1.24546405 -2.58919267 -0.7767578 0 0 Z " fill="#BBBBBB" transform="translate(164,146)"/>
<path d="M0 0 C1.32 0 2.64 0 4 0 C4 3.96 4 7.92 4 12 C3.34 12 2.68 12 2 12 C1.93941406 11.30132812 1.87882813 10.60265625 1.81640625 9.8828125 C1.73261719 8.97273438 1.64882812 8.06265625 1.5625 7.125 C1.48128906 6.22007813 1.40007812 5.31515625 1.31640625 4.3828125 C1.13010715 1.98889139 1.13010715 1.98889139 0 0 Z " fill="#434343" transform="translate(230,38)"/>
<path d="M0 0 C0.33 0 0.66 0 1 0 C1.12375 1.093125 1.2475 2.18625 1.375 3.3125 C1.75464801 7.07381802 1.75464801 7.07381802 4 10 C2.125 9.6875 2.125 9.6875 0 9 C-2 6 -2 6 -1.6875 3.375 C-1 1 -1 1 0 0 Z " fill="#515151" transform="translate(212,140)"/>
<path d="M0 0 C0.33 0 0.66 0 1 0 C1.12375 1.093125 1.2475 2.18625 1.375 3.3125 C1.75464801 7.07381802 1.75464801 7.07381802 4 10 C2.125 9.6875 2.125 9.6875 0 9 C-2 6 -2 6 -1.6875 3.375 C-1 1 -1 1 0 0 Z " fill="#505050" transform="translate(212,40)"/>
<path d="M0 0 C0.66 0 1.32 0 2 0 C2.33 3.63 2.66 7.26 3 11 C2.01 11.33 1.02 11.66 0 12 C0 8.04 0 4.08 0 0 Z " fill="#3F3F3F" transform="translate(232,138)"/>
<path d="M0 0 C2.31 0 4.62 0 7 0 C7 0.99 7 1.98 7 3 C5.68 3 4.36 3 3 3 C3 5.64 3 8.28 3 11 C2.67 11 2.34 11 2 11 C2 7.7 2 4.4 2 1 C1.34 0.67 0.68 0.34 0 0 Z " fill="#939393" transform="translate(381,38)"/>
<path d="M0 0 C0.66 0.66 1.32 1.32 2 2 C1 3 1 3 -1.5625 3.0625 C-2.7690625 3.0315625 -2.7690625 3.0315625 -4 3 C-3.67 4.98 -3.34 6.96 -3 9 C-4.98 9 -6.96 9 -9 9 C-9 8.34 -9 7.68 -9 7 C-7.68 7.33 -6.36 7.66 -5 8 C-5 6.02 -5 4.04 -5 2 C-3.35 1.34 -1.7 0.68 0 0 Z " fill="#929292" transform="translate(394,147)"/>
<path d="M0 0 C2.90408342 3.87211123 3.85079464 6.40317854 5 11 C3.35 11.33 1.7 11.66 0 12 C0 8.04 0 4.08 0 0 Z " fill="#D2D2D2" transform="translate(234,138)"/>
<path d="M0 0 C0.33 0 0.66 0 1 0 C1.42317708 2.01822917 1.84635417 4.03645833 2.26953125 6.0546875 C2.92308838 8.37046549 2.92308838 8.37046549 6 10 C3.625 10.1875 3.625 10.1875 1 10 C-1.29404844 6.55892734 -1.26293056 5.03160191 -1 1 C-0.67 0.67 -0.34 0.34 0 0 Z " fill="#4D4D4D" transform="translate(374,140)"/>
<path d="M0 0 C0.33 0 0.66 0 1 0 C1 2.31 1 4.62 1 7 C-0.98 6.01 -2.96 5.02 -5 4 C-4.67 3.01 -4.34 2.02 -4 1 C-3.01 1.33 -2.02 1.66 -1 2 C-0.67 1.34 -0.34 0.68 0 0 Z " fill="#D2D2D2" transform="translate(165,38)"/>
<path d="M0 0 C0.66 0 1.32 0 2 0 C2 1.32 2 2.64 2 4 C3.32 3.67 4.64 3.34 6 3 C6 3.66 6 4.32 6 5 C4.02 5.33 2.04 5.66 0 6 C-0.38218767 4.34385343 -0.71395102 2.67542976 -1 1 C-0.67 0.67 -0.34 0.34 0 0 Z " fill="#696969" transform="translate(306,144)"/>
<path d="M0 0 C0.33 0 0.66 0 1 0 C1.42317708 2.01822917 1.84635417 4.03645833 2.26953125 6.0546875 C2.92308838 8.37046549 2.92308838 8.37046549 6 10 C3.625 10.1875 3.625 10.1875 1 10 C-1.56687367 6.1496895 -0.83288724 4.41430237 0 0 Z " fill="#4D4D4D" transform="translate(414,140)"/>
<path d="M0 0 C0.99 0.495 0.99 0.495 2 1 C2.4140625 3.28515625 2.4140625 3.28515625 2.625 6.0625 C2.69976562 6.98160156 2.77453125 7.90070312 2.8515625 8.84765625 C2.92503906 9.91306641 2.92503906 9.91306641 3 11 C2.01 11 1.02 11 0 11 C0 7.37 0 3.74 0 0 Z " fill="#494949" transform="translate(312,39)"/>
<path d="M0 0 C3.69230769 0.69230769 3.69230769 0.69230769 5 2 C5.04092937 4.33297433 5.04241723 6.66705225 5 9 C4.67 9 4.34 9 4 9 C3.67 7.02 3.34 5.04 3 3 C2.34 3 1.68 3 1 3 C0.67 4.65 0.34 6.3 0 8 C-0.33 8 -0.66 8 -1 8 C-1.04241723 5.66705225 -1.04092937 3.33297433 -1 1 C-0.67 0.67 -0.34 0.34 0 0 Z " fill="#D3D3D3" transform="translate(201,39)"/>
<path d="M0 0 C0.33 0 0.66 0 1 0 C1 1.98 1 3.96 1 6 C1.99 5.67 2.98 5.34 4 5 C4.33 6.65 4.66 8.3 5 10 C3.35 9.67 1.7 9.34 0 9 C0 6.03 0 3.06 0 0 Z " fill="#C2C2C2" transform="translate(273,140)"/>
<path d="M0 0 C1.65 0 3.3 0 5 0 C5 0.99 5 1.98 5 3 C3.68 3 2.36 3 1 3 C1 5.31 1 7.62 1 10 C0.67 10 0.34 10 0 10 C0 6.7 0 3.4 0 0 Z " fill="#A3A3A3" transform="translate(367,138)"/>
<path d="M0 0 C0 1.65 0 3.3 0 5 C-1.32 5.33 -2.64 5.66 -4 6 C-4.33 4.68 -4.66 3.36 -5 2 C-1.125 0 -1.125 0 0 0 Z " fill="#C9C9C9" transform="translate(395,42)"/>
<path d="M0 0 C1.2065625 0.0309375 1.2065625 0.0309375 2.4375 0.0625 C2.1075 1.3825 1.7775 2.7025 1.4375 4.0625 C-0.2125 4.0625 -1.8625 4.0625 -3.5625 4.0625 C-3.5625 0.08689024 -3.5625 0.08689024 0 0 Z " fill="#B1B1B1" transform="translate(373.5625,37.9375)"/>
<path d="M0 0 C0.78375 0.04125 1.5675 0.0825 2.375 0.125 C2.705 1.445 3.035 2.765 3.375 4.125 C2.715 4.125 2.055 4.125 1.375 4.125 C1.045 3.465 0.715 2.805 0.375 2.125 C-0.285 2.125 -0.945 2.125 -1.625 2.125 C-1.955 4.105 -2.285 6.085 -2.625 8.125 C-2.955 8.125 -3.285 8.125 -3.625 8.125 C-4.25 5.25 -4.25 5.25 -4.625 2.125 C-2.625 0.125 -2.625 0.125 0 0 Z " fill="#7D7D7D" transform="translate(242.625,37.875)"/>
<path d="M0 0 C2.5 1.3125 2.5 1.3125 5 3 C5 3.99 5 4.98 5 6 C2.13275314 5.42655063 1.1385485 5.1385485 -1 3 C-0.67 2.01 -0.34 1.02 0 0 Z " fill="#E7E7E7" transform="translate(289,143)"/>
<path d="M0 0 C1.98 0 3.96 0 6 0 C6.66 1.32 7.32 2.64 8 4 C7.01 4 6.02 4 5 4 C4.67 3.34 4.34 2.68 4 2 C2.35 2.33 0.7 2.66 -1 3 C-0.67 2.01 -0.34 1.02 0 0 Z " fill="#787878" transform="translate(239,138)"/>
<path d="M0 0 C0.33 1.32 0.66 2.64 1 4 C2.32 3.67 3.64 3.34 5 3 C5 3.99 5 4.98 5 6 C3.35 6 1.7 6 0 6 C-0.38218767 4.34385343 -0.71395102 2.67542976 -1 1 C-0.67 0.67 -0.34 0.34 0 0 Z " fill="#666666" transform="translate(278,44)"/>
<path d="M0 0 C3.125 -0.1875 3.125 -0.1875 6 0 C6 0.99 6 1.98 6 3 C4.35 2.67 2.7 2.34 1 2 C0.67 3.65 0.34 5.3 0 7 C-0.66 5.68 -1.32 4.36 -2 3 C-1.34 2.01 -0.68 1.02 0 0 Z " fill="#7E7E7E" transform="translate(200,138)"/>
<path d="M0 0 C0.99 0 1.98 0 3 0 C3.66 0.99 4.32 1.98 5 3 C4.67 3.99 4.34 4.98 4 6 C2 4.6875 2 4.6875 0 3 C0 2.01 0 1.02 0 0 Z " fill="#DCDCDC" transform="translate(291,139)"/>
<path d="M0 0 C1.98 0 3.96 0 6 0 C6.33 1.32 6.66 2.64 7 4 C6.34 4 5.68 4 5 4 C4.67 3.34 4.34 2.68 4 2 C2.68 2.33 1.36 2.66 0 3 C0 2.01 0 1.02 0 0 Z " fill="#797979" transform="translate(354,138)"/>
<path d="M0 0 C1.32 0.66 2.64 1.32 4 2 C4 2.99 4 3.98 4 5 C1.13275314 4.42655063 0.1385485 4.1385485 -2 2 C-1.34 2 -0.68 2 0 2 C0 1.34 0 0.68 0 0 Z " fill="#E7E7E7" transform="translate(290,44)"/>
<path d="M0 0 C0.99 0 1.98 0 3 0 C3.66 0.99 4.32 1.98 5 3 C4.67 3.99 4.34 4.98 4 6 C2 4.6875 2 4.6875 0 3 C0 2.01 0 1.02 0 0 Z " fill="#DFDFDF" transform="translate(291,39)"/>
</svg>
